<mxfile host="app.diagrams.net" modified="2022-05-04T05:42:38.088Z" agent="5.0 (Macintosh; Intel Mac OS X 10_15_7) AppleWebKit/537.36 (KHTML, like Gecko) Chrome/100.0.4896.88 Safari/537.36" etag="OkjRyfhTMZ-eQHEiXIfR" version="17.5.0" type="github">
  <diagram id="py3CheThhRGEr_nKbh0R" name="Page-1">
    <mxGraphModel dx="1351" dy="720" grid="1" gridSize="10" guides="1" tooltips="1" connect="1" arrows="1" fold="1" page="1" pageScale="1" pageWidth="827" pageHeight="1169" math="0" shadow="0">
      <root>
        <mxCell id="0" />
        <mxCell id="1" parent="0" />
        <mxCell id="mE4rmoKlaiMrOfvlauwh-3" value="FE&lt;br&gt;(html + css + Vue)&lt;br&gt;" style="rounded=0;whiteSpace=wrap;html=1;" vertex="1" parent="1">
          <mxGeometry x="40" y="40" width="360" height="60" as="geometry" />
        </mxCell>
        <mxCell id="mE4rmoKlaiMrOfvlauwh-19" style="edgeStyle=orthogonalEdgeStyle;rounded=0;orthogonalLoop=1;jettySize=auto;html=1;exitX=0.5;exitY=0;exitDx=0;exitDy=0;entryX=0.5;entryY=1;entryDx=0;entryDy=0;" edge="1" parent="1" source="mE4rmoKlaiMrOfvlauwh-5" target="mE4rmoKlaiMrOfvlauwh-3">
          <mxGeometry relative="1" as="geometry" />
        </mxCell>
        <mxCell id="mE4rmoKlaiMrOfvlauwh-5" value="BE&lt;br&gt;(Spring アプリケーション層・ドメイン層)" style="rounded=0;whiteSpace=wrap;html=1;" vertex="1" parent="1">
          <mxGeometry x="40" y="120" width="360" height="60" as="geometry" />
        </mxCell>
        <mxCell id="mE4rmoKlaiMrOfvlauwh-20" style="edgeStyle=orthogonalEdgeStyle;rounded=0;orthogonalLoop=1;jettySize=auto;html=1;entryX=0.331;entryY=0.987;entryDx=0;entryDy=0;entryPerimeter=0;" edge="1" parent="1" source="mE4rmoKlaiMrOfvlauwh-6" target="mE4rmoKlaiMrOfvlauwh-5">
          <mxGeometry relative="1" as="geometry" />
        </mxCell>
        <mxCell id="mE4rmoKlaiMrOfvlauwh-6" value="BE&lt;br&gt;(Spring インフラ層)" style="rounded=0;whiteSpace=wrap;html=1;" vertex="1" parent="1">
          <mxGeometry x="40" y="200" width="240" height="60" as="geometry" />
        </mxCell>
        <mxCell id="mE4rmoKlaiMrOfvlauwh-18" style="edgeStyle=orthogonalEdgeStyle;rounded=0;orthogonalLoop=1;jettySize=auto;html=1;entryX=0.161;entryY=1.023;entryDx=0;entryDy=0;entryPerimeter=0;" edge="1" parent="1" source="mE4rmoKlaiMrOfvlauwh-7" target="mE4rmoKlaiMrOfvlauwh-6">
          <mxGeometry relative="1" as="geometry">
            <mxPoint x="78" y="260" as="targetPoint" />
          </mxGeometry>
        </mxCell>
        <mxCell id="mE4rmoKlaiMrOfvlauwh-7" value="DB&lt;br&gt;Redis" style="shape=cylinder3;whiteSpace=wrap;html=1;boundedLbl=1;backgroundOutline=1;size=15;" vertex="1" parent="1">
          <mxGeometry x="40" y="300" width="80" height="80" as="geometry" />
        </mxCell>
        <mxCell id="mE4rmoKlaiMrOfvlauwh-17" style="edgeStyle=orthogonalEdgeStyle;rounded=0;orthogonalLoop=1;jettySize=auto;html=1;exitX=0.5;exitY=0;exitDx=0;exitDy=0;exitPerimeter=0;entryX=0.667;entryY=0.997;entryDx=0;entryDy=0;entryPerimeter=0;" edge="1" parent="1" source="mE4rmoKlaiMrOfvlauwh-8" target="mE4rmoKlaiMrOfvlauwh-6">
          <mxGeometry relative="1" as="geometry" />
        </mxCell>
        <mxCell id="mE4rmoKlaiMrOfvlauwh-8" value="DB&lt;br&gt;MySQL" style="shape=cylinder3;whiteSpace=wrap;html=1;boundedLbl=1;backgroundOutline=1;size=15;" vertex="1" parent="1">
          <mxGeometry x="160" y="300" width="80" height="80" as="geometry" />
        </mxCell>
        <mxCell id="mE4rmoKlaiMrOfvlauwh-12" style="edgeStyle=orthogonalEdgeStyle;rounded=0;orthogonalLoop=1;jettySize=auto;html=1;exitX=0.625;exitY=0.2;exitDx=0;exitDy=0;exitPerimeter=0;entryX=0.817;entryY=1.041;entryDx=0;entryDy=0;entryPerimeter=0;" edge="1" parent="1" source="mE4rmoKlaiMrOfvlauwh-9" target="mE4rmoKlaiMrOfvlauwh-5">
          <mxGeometry relative="1" as="geometry" />
        </mxCell>
        <mxCell id="mE4rmoKlaiMrOfvlauwh-9" value="" style="ellipse;shape=cloud;whiteSpace=wrap;html=1;" vertex="1" parent="1">
          <mxGeometry x="260" y="300" width="120" height="80" as="geometry" />
        </mxCell>
        <mxCell id="mE4rmoKlaiMrOfvlauwh-10" value="" style="ellipse;shape=cloud;whiteSpace=wrap;html=1;" vertex="1" parent="1">
          <mxGeometry x="270" y="310" width="120" height="80" as="geometry" />
        </mxCell>
        <mxCell id="mE4rmoKlaiMrOfvlauwh-11" value="API" style="ellipse;shape=cloud;whiteSpace=wrap;html=1;" vertex="1" parent="1">
          <mxGeometry x="280" y="320" width="120" height="80" as="geometry" />
        </mxCell>
      </root>
    </mxGraphModel>
  </diagram>
</mxfile>
